<?xml version="1.0" standalone="no"?>
<!DOCTYPE svg PUBLIC "-//W3C//DTD SVG 20010904//EN"
 "http://www.w3.org/TR/2001/REC-SVG-20010904/DTD/svg10.dtd">
<svg version="1.0" xmlns="http://www.w3.org/2000/svg"
 width="1024.000000pt" height="1024.000000pt" viewBox="0 0 1024.000000 1024.000000"
 preserveAspectRatio="xMidYMid meet">
<metadata>
Created by potrace 1.11, written by Peter Selinger 2001-2013
</metadata>
<g transform="translate(0.000000,1024.000000) scale(0.100000,-0.100000)"
fill="#000000" stroke="none">
<path d="M0 5120 l0 -5120 5120 0 5120 0 0 5120 0 5120 -5120 0 -5120 0 0
-5120z m2843 2200 c279 -27 468 -105 747 -308 16 -12 24 -1 90 113 l72 125 64
0 c35 0 64 -1 64 -2 2 -15 60 -1051 60 -1075 l0 -33 -103 0 -102 0 -34 99
c-120 354 -320 605 -577 722 -130 59 -212 74 -404 73 -200 -1 -272 -15 -407
-81 -103 -50 -216 -160 -262 -253 -39 -80 -61 -181 -61 -280 0 -345 205 -550
844 -844 313 -145 426 -200 581 -285 498 -274 734 -511 814 -815 85 -324 24
-692 -160 -965 -216 -319 -572 -519 -1039 -586 -143 -20 -438 -20 -577 1 -266
39 -506 144 -737 322 -69 53 -54 64 -153 -109 l-68 -119 -62 0 -62 0 -5 33
c-3 17 -21 284 -41 592 -19 308 -37 575 -39 593 l-5 32 104 0 c117 0 105 9
125 -95 40 -200 148 -417 287 -577 232 -266 573 -408 978 -408 336 0 606 114
757 318 155 209 167 546 26 764 -120 186 -369 349 -873 572 -220 98 -397 184
-520 254 -305 173 -522 381 -615 586 -110 242 -114 623 -10 895 160 415 546
694 1025 740 129 12 158 12 278 1z m3437 -159 l0 -108 -127 -6 c-71 -3 -151
-10 -179 -17 -75 -16 -153 -67 -177 -113 -38 -75 -19 -232 52 -424 32 -86
1052 -2666 1055 -2671 5 -4 1033 2540 1069 2643 53 152 70 244 65 338 -9 173
-91 236 -326 252 l-102 8 0 103 0 104 680 0 680 0 0 -104 0 -104 -72 -12 c-99
-17 -192 -46 -261 -82 -76 -41 -172 -144 -221 -238 -22 -41 -384 -916 -806
-1945 l-768 -1870 -102 0 -102 0 -729 1760 c-401 968 -754 1812 -785 1875
-161 331 -323 464 -605 496 l-59 7 0 108 0 109 910 0 910 0 0 -109z"/>
</g>
</svg>
